#!OML:ASF E:\emotionWalksFemale\Project 1\Capture day 1\Session 1\Female1.ASF
:FULLY-SPECIFIED
:DEGREES
332
root 7.81637 15.6364 14.4643 -179.588 -0.481643 -179.547
lowerback 5.88168 1.33169 1.22568
upperback -4.94436 1.77098 -0.0727003
thorax -8.46988 0.732791 -0.987594
lowerneck -6.55107 -2.72794 -6.50825
upperneck 10.2011 -3.68804 5.09294
head 4.33589 -1.85228 2.40938
rclavicle -2.79075e-015 -4.50993e-015
rhumerus -45.6996 17.2657 -100.818
rradius 37.9234
rwrist 17.6061
rhand -3.7741 -53.273
rfingers 7.12502
rthumb 21.9709 -442.045
lclavicle -2.79075e-015 -4.50993e-015
lhumerus -42.7141 -7.75866 92.8977
lradius 35.4931
lwrist -17.1605
lhand -6.1501 -36.415
lfingers 7.12502
lthumb 19.6881 -7.39197
rfemur 2.32602 20.9829 27.7437
rtibia 10.8928
rfoot -12.6476 -33.6348
rtoes 4.90609
lfemur -3.94703 -23.7219 -24.3103
ltibia 20.6791
lfoot -20.9839 25.5524
ltoes -22.5344
333
root 7.82089 15.6432 14.4823 -179.416 -0.929483 -179.576
lowerback 6.02657 1.1842 1.10962
upperback -5.051 1.55909 -0.0719743
thorax -8.67911 0.631469 -0.898826
lowerneck -6.63893 -2.74763 -6.46409
upperneck 10.2669 -3.71001 5.0364
head 4.37021 -1.86346 2.38216
rclavicle 6.42478e-015 2.08724e-015
rhumerus -45.7165 17.3535 -100.875
rradius 37.965
rwrist 17.5708
rhand -3.4352 -53.3229
rfingers 7.12502
rthumb 22.2962 -442.057
lclavicle 6.42478e-015 2.08724e-015
lhumerus -42.5922 -7.78156 92.8839
lradius 35.43
lwrist -17.0853
lhand -6.38094 -36.6304
lfingers 7.12502
lthumb 19.4661 -7.58477
rfemur 2.1094 20.8248 27.6619
rtibia 10.8349
rfoot -12.7447 -33.8638
rtoes 5.64643
lfemur -4.31807 -23.5981 -24.1295
ltibia 20.6718
lfoot -20.6245 25.1073
ltoes -23.3949
334
root 7.81828 15.6432 14.4815 -179.5 -0.907655 -179.592
lowerback 6.04981 1.23992 1.1344
upperback -5.02491 1.63378 -0.14109
thorax -8.66008 0.665344 -0.996022
lowerneck -6.39436 -2.77073 -6.42539
upperneck 10.0026 -3.7648 5.18113
head 4.2537 -1.88292 2.42064
rclavicle -1.2393e-015 -1.49089e-015
rhumerus -45.7079 17.3384 -100.985
rradius 37.9317
rwrist 17.4322
rhand -3.06143 -53.6778
rfingers 7.12502
rthumb 22.655 -442.368
lclavicle -1.2393e-015 -1.49089e-015
lhumerus -42.4943 -8.07197 92.9092
lradius 35.3596
lwrist -16.9749
lhand -6.13009 -36.2873
lfingers 7.12502
lthumb 19.7073 -7.26628
rfemur 2.20515 20.607 27.6377
rtibia 10.7993
rfoot -12.5505 -33.6421
rtoes 5.23422
lfemur -4.21585 -23.5828 -24.1984
ltibia 20.662
lfoot -20.7351 25.2023
ltoes -23.1225
335
root 7.8174 15.644 14.4836 -179.518 -0.925037 -179.608
lowerback 6.03862 1.2964 1.1395
upperback -5.02597 1.70488 -0.209049
thorax -8.65071 0.697495 -1.07986
lowerneck -6.09536 -2.7757 -6.40131
upperneck 9.69529 -3.79372 5.32521
head 4.11399 -1.89133 2.46371
rclavicle 1.93691e-014 1.83876e-015
rhumerus -45.7429 17.3544 -101.134
rradius 37.7554
rwrist 17.5607
rhand -3.13626 -53.7458
rfingers 7.12502
rthumb 22.5832 -442.445
lclavicle 1.93691e-014 1.83876e-015
lhumerus -42.4825 -8.32963 92.9369
lradius 35.3495
lwrist -16.9902
lhand -6.23111 -36.3366
lfingers 7.12502
lthumb 19.6102 -7.30563
rfemur 2.21628 20.6872 27.6332
rtibia 10.8233
rfoot -12.4812 -33.6947
rtoes 4.74243
lfemur -4.20752 -23.5508 -24.2207
ltibia 20.6461
lfoot -20.5517 25.3467
ltoes -24.0896
336
root 7.8152 15.6426 14.4848 -179.55 -0.905647 -179.629
lowerback 6.08196 1.29795 1.08747
upperback -5.02824 1.70307 -0.205021
thorax -8.68036 0.699779 -1.04742
lowerneck -6.00812 -2.74814 -6.34766
upperneck 9.56356 -3.75145 5.2591
head 4.05475 -1.87134 2.43848
rclavicle 7.33018e-016 -3.47873e-016
rhumerus -45.812 17.6343 -101.302
rradius 37.5194
rwrist 17.8811
rhand -3.3248 -53.6826
rfingers 7.12502
rthumb 22.4022 -442.404
lclavicle 7.33018e-016 -3.47873e-016
lhumerus -42.5094 -8.26713 92.9267
lradius 35.3847
lwrist -17.043
lhand -6.50516 -36.85
lfingers 7.12502
lthumb 19.3467 -7.79243
rfemur 2.24423 20.7956 27.6224
rtibia 10.8498
rfoot -12.4392 -33.7562
rtoes 4.46986
lfemur -4.16922 -23.4815 -24.273
ltibia 20.6636
lfoot -20.5508 25.2731
ltoes -24.0677
337
root 7.81276 15.6399 14.4843 -179.626 -0.865426 -179.616
lowerback 6.16218 1.31545 1.06735
upperback -5.03048 1.72715 -0.19786
thorax -8.73032 0.712842 -1.03403
lowerneck -5.94914 -2.75277 -6.29204
upperneck 9.51192 -3.76043 5.22205
head 4.02807 -1.87619 2.41832
rclavicle -1.68097e-014 -4.47266e-016
rhumerus -45.8672 17.9312 -101.466
rradius 37.2752
rwrist 18.1416
rhand -3.44435 -53.5724
rfingers 7.12502
rthumb 22.2875 -442.307
lclavicle -1.68097e-014 -4.47266e-016
lhumerus -42.575 -8.28849 92.9299
lradius 35.4553
lwrist -17.1929
lhand -6.48611 -37.1567
lfingers 7.12502
lthumb 19.365 -8.10097
rfemur 2.34409 20.7011 27.6389
rtibia 10.8129
rfoot -12.3623 -33.6248
rtoes 4.4171
lfemur -4.08397 -23.3894 -24.308
ltibia 20.7101
lfoot -20.9003 24.9477
ltoes -22.2998
338
root 7.81235 15.6384 14.4862 -179.688 -0.937621 -179.566
lowerback 6.1812 1.31796 1.07687
upperback -4.9986 1.73473 -0.190798
thorax -8.70661 0.717713 -1.03308
lowerneck -5.86354 -2.76897 -6.26464
upperneck 9.41915 -3.78994 5.26058
head 3.98755 -1.88862 2.42528
rclavicle -1.05232e-014 -2.23633e-015
rhumerus -45.8343 18.1779 -101.573
rradius 37.0177
rwrist 18.2147
rhand -3.74258 -53.3348
rfingers 7.12502
rthumb 22.0011 -442.103
lclavicle -1.05232e-014 -2.23633e-015
lhumerus -42.548 -8.3854 92.9636
lradius 35.4801
lwrist -17.2824
lhand -6.25419 -36.9931
lfingers 7.12502
lthumb 19.588 -7.95993
rfemur 2.43268 20.6201 27.7132
rtibia 10.7676
rfoot -12.512 -33.6333
rtoes 4.7649
lfemur -4.06361 -23.2891 -24.2589
ltibia 20.7632
lfoot -21.0259 24.6951
ltoes -21.4366
339
root 7.81225 15.6393 14.4926 -179.689 -1.10487 -179.513
lowerback 6.16561 1.25833 1.0555
upperback -4.94099 1.65893 -0.148727
thorax -8.63842 0.686115 -0.965403
lowerneck -5.8779 -2.75529 -6.28252
upperneck 9.32597 -3.76481 5.2941
head 3.96117 -1.87312 2.44005
rclavicle -1.38155e-014 -1.68967e-015
rhumerus -45.7102 18.4841 -101.621
rradius 36.9077
rwrist 17.84
rhand -3.69233 -53.5403
rfingers 7.12502
rthumb 22.0494 -442.303
lclavicle -1.38155e-014 -1.68967e-015
lhumerus -42.3869 -8.2935 92.9642
lradius 35.4491
lwrist -17.2939
lhand -5.87137 -36.5487
lfingers 7.12502
lthumb 19.956 -7.55338
rfemur 2.4416 20.6075 27.7769
rtibia 10.7022
rfoot -12.6039 -33.8065
rtoes 5.19029
lfemur -4.17312 -23.1794 -24.1491
ltibia 20.8135
lfoot -20.7219 24.6104
ltoes -22.6254
340
root 7.80853 15.6375 14.4918 -179.788 -0.996727 -179.484
lowerback 6.14488 1.28232 1.02857
upperback -4.85471 1.69558 -0.116431
thorax -8.53345 0.710516 -0.919598
lowerneck -5.86003 -2.74069 -6.23993
upperneck 9.25954 -3.74196 5.25992
head 3.93532 -1.86119 2.42431
rclavicle -1.70831e-015 4.47266e-016
rhumerus -45.6505 18.7117 -101.651
rradius 36.9576
rwrist 17.3434
rhand -3.12049 -53.9792
rfingers 7.12502
rthumb 22.5983 -442.676
lclavicle -1.70831e-015 4.47266e-016
lhumerus -42.2572 -8.21469 92.9364
lradius 35.3868
lwrist -17.293
lhand -5.64766 -36.3715
lfingers 7.12502
lthumb 20.171 -7.39876
rfemur 2.56897 20.6062 27.8226
rtibia 10.6491
rfoot -12.3057 -33.7265
rtoes 4.69741
lfemur -4.07035 -23.0885 -24.1809
ltibia 20.8495
lfoot -20.6178 24.6467
ltoes -23.3826
341
root 7.80569 15.6376 14.4904 -179.801 -0.894213 -179.505
lowerback 6.07623 1.30258 0.962221
upperback -4.84039 1.716 -0.105706
thorax -8.47935 0.72544 -0.871813
lowerneck -5.76191 -2.70909 -6.159
upperneck 9.19158 -3.70202 5.18315
head 3.89318 -1.84353 2.39116
rclavicle 3.93221e-015 -2.43511e-015
rhumerus -45.6724 18.948 -101.74
rradius 36.9096
rwrist 16.9773
rhand -2.9179 -54.0912
rfingers 7.12502
rthumb 22.7928 -442.765
lclavicle 3.93221e-015 -2.43511e-015
lhumerus -42.1993 -8.17217 92.9141
lradius 35.3068
lwrist -17.2449
lhand -5.68751 -36.4784
lfingers 7.12502
lthumb 20.1327 -7.50155
rfemur 2.58662 20.6329 27.782
rtibia 10.6497
rfoot -12.1171 -33.6659
rtoes 4.32418
lfemur -4.03197 -23.0551 -24.2398
ltibia 20.8659
lfoot -20.8903 24.5057
ltoes -22.0892
